<svg width="91" height="66" viewBox="0 0 91 66" fill="none" xmlns="http://www.w3.org/2000/svg">
<path fill-rule="evenodd" clip-rule="evenodd" d="M61.3646 18.0713H53.0178C48.8637 18.0713 42.2751 23.599 42.2751 28.1409V36.4904C42.2751 39.1576 40.0918 41.3417 37.4255 41.3417H29.0787C26.4123 41.3417 24.229 39.1576 24.229 36.4904V28.1409C24.229 25.4737 26.4123 23.2897 29.0787 23.2897H35.9377C41.0579 23.2897 48.1488 18.9217 48.1488 13.2201V4.85122C48.1488 2.18402 50.3321 0 52.9985 0H61.3453C64.0116 0 66.195 2.18402 66.195 4.85122V10.8814C66.195 17.994 72.6676 23.2704 79.4687 23.2704H85.4583C88.1247 23.2704 90.308 25.4544 90.308 28.1216V36.4711C90.308 39.1383 88.1247 41.3223 85.4583 41.3223C78.9664 41.3223 66.2916 43.8929 66.2916 52.7256V61.0751C66.2916 63.7423 64.1082 65.9263 61.4419 65.9263H53.0951C50.4287 65.9263 48.2454 63.7423 48.2454 61.0751V52.7643C48.2454 50.097 50.4287 47.913 53.0951 47.913H61.4419C75.1794 47.913 77.2661 18.0713 61.3646 18.0713Z" fill="#00CF31"/>
<path fill-rule="evenodd" clip-rule="evenodd" d="M28.6342 6.10352e-05H36.981C39.6474 6.10352e-05 41.8307 2.18408 41.8307 4.85128V13.2008C41.8307 15.868 39.6474 18.052 36.981 18.052H28.6342C25.5042 18.052 21.9297 20.7192 19.843 23.8309C17.5824 27.2133 17.4085 34.4418 18.3166 38.172C19.5145 43.1392 23.3981 47.8938 28.7115 47.8938H37.0583C42.7581 47.8938 47.1247 41.8056 47.8783 36.5678V28.7981C47.8783 26.1309 50.0616 23.9469 52.7279 23.9469H61.0747C63.7411 23.9469 65.9244 26.1309 65.9244 28.7981V37.1476C65.9244 44.3182 56.0705 40.8199 50.5639 43.1392C46.2939 44.9367 41.8886 48.4156 41.8886 52.7643V61.1138C41.8886 63.781 39.7053 65.965 37.039 65.965H28.6922C26.0258 65.965 23.8425 63.781 23.8425 61.1138V52.7643C23.8425 43.8543 11.4382 41.9989 4.83033 41.9989C2.18331 41.9989 0 39.8148 0 37.1476V28.7981C0 26.1309 2.18331 23.9469 4.84965 23.9469H10.2983C15.8242 23.9469 23.7846 19.289 23.7846 13.2201V4.85128C23.7846 2.18408 25.9679 6.10352e-05 28.6342 6.10352e-05Z" fill="#152860"/>
</svg>
